<mxfile host="app.diagrams.net" modified="2021-01-19T11:08:22.429Z" agent="5.0 (Windows NT 10.0; Win64; x64) AppleWebKit/537.36 (KHTML, like Gecko) Chrome/87.0.4280.88 Safari/537.36" etag="lvUfTu6g4tFtAJ9OWQCY" version="14.2.4" type="github">
  <diagram id="ampolG_5GsY7RyZEAxuc" name="Page-1">
    <mxGraphModel dx="3956" dy="2291" grid="1" gridSize="10" guides="1" tooltips="1" connect="1" arrows="1" fold="1" page="1" pageScale="1" pageWidth="827" pageHeight="1169" math="0" shadow="0">
      <root>
        <mxCell id="0" />
        <mxCell id="1" parent="0" />
        <mxCell id="I4ma-wWeDAZJkw1Mpciw-2" value="Резервации Номеров" style="rounded=0;whiteSpace=wrap;html=1;fillColor=#fff2cc;strokeColor=#d6b656;" parent="1" vertex="1">
          <mxGeometry x="580" y="440" width="120" height="60" as="geometry" />
        </mxCell>
        <mxCell id="I4ma-wWeDAZJkw1Mpciw-3" value="GetFreePhones" style="rounded=0;whiteSpace=wrap;html=1;fillColor=#fff2cc;strokeColor=#d6b656;" parent="1" vertex="1">
          <mxGeometry x="450" y="570" width="120" height="60" as="geometry" />
        </mxCell>
        <mxCell id="I4ma-wWeDAZJkw1Mpciw-4" value="GetReservePhones" style="rounded=0;whiteSpace=wrap;html=1;fillColor=#fff2cc;strokeColor=#d6b656;" parent="1" vertex="1">
          <mxGeometry x="670" y="570" width="120" height="60" as="geometry" />
        </mxCell>
        <mxCell id="I4ma-wWeDAZJkw1Mpciw-6" value="1" style="endArrow=open;html=1;endSize=12;startArrow=diamondThin;startSize=14;startFill=0;edgeStyle=orthogonalEdgeStyle;align=left;verticalAlign=bottom;exitX=0.333;exitY=1;exitDx=0;exitDy=0;exitPerimeter=0;" parent="1" source="I4ma-wWeDAZJkw1Mpciw-2" target="I4ma-wWeDAZJkw1Mpciw-3" edge="1">
          <mxGeometry x="-1" y="3" relative="1" as="geometry">
            <mxPoint x="500" y="740" as="sourcePoint" />
            <mxPoint x="670" y="740" as="targetPoint" />
          </mxGeometry>
        </mxCell>
        <mxCell id="I4ma-wWeDAZJkw1Mpciw-7" value="1" style="endArrow=open;html=1;endSize=12;startArrow=diamondThin;startSize=14;startFill=0;edgeStyle=orthogonalEdgeStyle;align=left;verticalAlign=bottom;exitX=0.592;exitY=1.017;exitDx=0;exitDy=0;exitPerimeter=0;" parent="1" source="I4ma-wWeDAZJkw1Mpciw-2" target="I4ma-wWeDAZJkw1Mpciw-4" edge="1">
          <mxGeometry x="-1" y="3" relative="1" as="geometry">
            <mxPoint x="599.96" y="490" as="sourcePoint" />
            <mxPoint x="520" y="580" as="targetPoint" />
          </mxGeometry>
        </mxCell>
        <mxCell id="I4ma-wWeDAZJkw1Mpciw-10" value="Витрина" style="rounded=0;whiteSpace=wrap;html=1;" parent="1" vertex="1">
          <mxGeometry x="90" y="100" width="120" height="140" as="geometry" />
        </mxCell>
        <mxCell id="I4ma-wWeDAZJkw1Mpciw-11" value="MPC" style="rounded=0;whiteSpace=wrap;html=1;" parent="1" vertex="1">
          <mxGeometry x="940" y="715" width="120" height="60" as="geometry" />
        </mxCell>
        <mxCell id="I4ma-wWeDAZJkw1Mpciw-12" value="API" style="whiteSpace=wrap;html=1;aspect=fixed;" parent="1" vertex="1">
          <mxGeometry x="980" y="610" width="40" height="40" as="geometry" />
        </mxCell>
        <mxCell id="I4ma-wWeDAZJkw1Mpciw-14" value="" style="endArrow=none;html=1;exitX=0.5;exitY=0;exitDx=0;exitDy=0;entryX=0.5;entryY=1;entryDx=0;entryDy=0;" parent="1" source="I4ma-wWeDAZJkw1Mpciw-11" target="I4ma-wWeDAZJkw1Mpciw-12" edge="1">
          <mxGeometry width="50" height="50" relative="1" as="geometry">
            <mxPoint x="610" y="550" as="sourcePoint" />
            <mxPoint x="660" y="500" as="targetPoint" />
          </mxGeometry>
        </mxCell>
        <mxCell id="I4ma-wWeDAZJkw1Mpciw-16" value="Process register" style="rounded=0;whiteSpace=wrap;html=1;verticalAlign=top;fillColor=#f5f5f5;strokeColor=#666666;fontColor=#333333;" parent="1" vertex="1">
          <mxGeometry x="-220" y="102.5" width="120" height="230" as="geometry" />
        </mxCell>
        <mxCell id="I4ma-wWeDAZJkw1Mpciw-17" value="Резервации Номеров" style="rounded=0;whiteSpace=wrap;html=1;fillColor=#fff2cc;strokeColor=#d6b656;" parent="1" vertex="1">
          <mxGeometry x="-210" y="132.5" width="100" height="45" as="geometry" />
        </mxCell>
        <mxCell id="I4ma-wWeDAZJkw1Mpciw-18" value="Заказа ПП" style="rounded=0;whiteSpace=wrap;html=1;" parent="1" vertex="1">
          <mxGeometry x="-210" y="195" width="100" height="45" as="geometry" />
        </mxCell>
        <mxCell id="I4ma-wWeDAZJkw1Mpciw-21" value="Витрина" style="shape=umlLifeline;perimeter=lifelinePerimeter;whiteSpace=wrap;html=1;container=1;collapsible=0;recursiveResize=0;outlineConnect=0;" parent="1" vertex="1">
          <mxGeometry x="120" y="-610" width="100" height="570" as="geometry" />
        </mxCell>
        <mxCell id="I4ma-wWeDAZJkw1Mpciw-26" value="" style="html=1;points=[];perimeter=orthogonalPerimeter;" parent="I4ma-wWeDAZJkw1Mpciw-21" vertex="1">
          <mxGeometry x="45" y="80" width="10" height="100" as="geometry" />
        </mxCell>
        <mxCell id="I4ma-wWeDAZJkw1Mpciw-54" value="" style="html=1;points=[];perimeter=orthogonalPerimeter;fontColor=#000000;" parent="I4ma-wWeDAZJkw1Mpciw-21" vertex="1">
          <mxGeometry x="45" y="300" width="10" height="210" as="geometry" />
        </mxCell>
        <mxCell id="I4ma-wWeDAZJkw1Mpciw-22" value="Process&lt;br&gt;Register" style="shape=umlLifeline;perimeter=lifelinePerimeter;whiteSpace=wrap;html=1;container=1;collapsible=0;recursiveResize=0;outlineConnect=0;" parent="1" vertex="1">
          <mxGeometry x="370" y="-610" width="100" height="550" as="geometry" />
        </mxCell>
        <mxCell id="I4ma-wWeDAZJkw1Mpciw-27" value="" style="html=1;points=[];perimeter=orthogonalPerimeter;" parent="I4ma-wWeDAZJkw1Mpciw-22" vertex="1">
          <mxGeometry x="45" y="80" width="10" height="80" as="geometry" />
        </mxCell>
        <mxCell id="6xk-dBPFCgzjhm5DXFw_-33" value="" style="html=1;points=[];perimeter=orthogonalPerimeter;" parent="I4ma-wWeDAZJkw1Mpciw-22" vertex="1">
          <mxGeometry x="45" y="320" width="10" height="80" as="geometry" />
        </mxCell>
        <mxCell id="I4ma-wWeDAZJkw1Mpciw-28" value="Get Process List (канала продаж)" style="html=1;verticalAlign=bottom;endArrow=block;entryX=0;entryY=0;" parent="1" source="I4ma-wWeDAZJkw1Mpciw-21" target="I4ma-wWeDAZJkw1Mpciw-27" edge="1">
          <mxGeometry relative="1" as="geometry">
            <mxPoint x="95" y="-420" as="sourcePoint" />
          </mxGeometry>
        </mxCell>
        <mxCell id="I4ma-wWeDAZJkw1Mpciw-29" value="return (Process List)" style="html=1;verticalAlign=bottom;endArrow=open;dashed=1;endSize=8;exitX=0;exitY=0.95;entryX=1.5;entryY=0.788;entryDx=0;entryDy=0;entryPerimeter=0;" parent="1" source="I4ma-wWeDAZJkw1Mpciw-27" target="I4ma-wWeDAZJkw1Mpciw-26" edge="1">
          <mxGeometry relative="1" as="geometry">
            <mxPoint x="95" y="-344" as="targetPoint" />
          </mxGeometry>
        </mxCell>
        <mxCell id="I4ma-wWeDAZJkw1Mpciw-30" value="" style="endArrow=none;html=1;exitX=1;exitY=0.25;exitDx=0;exitDy=0;entryX=0.017;entryY=0.457;entryDx=0;entryDy=0;entryPerimeter=0;" parent="1" source="I4ma-wWeDAZJkw1Mpciw-16" target="I4ma-wWeDAZJkw1Mpciw-10" edge="1">
          <mxGeometry width="50" height="50" relative="1" as="geometry">
            <mxPoint x="-10" y="202.5" as="sourcePoint" />
            <mxPoint x="40" y="152.5" as="targetPoint" />
          </mxGeometry>
        </mxCell>
        <mxCell id="I4ma-wWeDAZJkw1Mpciw-31" value="По каким критериям витрина должна получить список процессов&lt;br&gt;&lt;br&gt;&lt;div style=&quot;text-align: left&quot;&gt;&lt;ol&gt;&lt;li&gt;Exp API должна уметь управлять&amp;nbsp; (создавать, публиковать, подписываться, контроль версий) регистрами на примере SOL&lt;/li&gt;&lt;li&gt;Exp API должна уметь управлять e2E CJM&lt;/li&gt;&lt;li&gt;Для каждого E2E процесса было бы отлично показывать метрики использования.&lt;/li&gt;&lt;/ol&gt;&lt;/div&gt;" style="text;html=1;strokeColor=none;fillColor=none;align=center;verticalAlign=middle;whiteSpace=wrap;rounded=0;fontColor=#FF3333;" parent="1" vertex="1">
          <mxGeometry x="-210" y="-190" width="220" height="210" as="geometry" />
        </mxCell>
        <mxCell id="I4ma-wWeDAZJkw1Mpciw-32" value="FORIS.RI" style="rounded=0;whiteSpace=wrap;html=1;" parent="1" vertex="1">
          <mxGeometry x="750" y="835" width="120" height="60" as="geometry" />
        </mxCell>
        <mxCell id="I4ma-wWeDAZJkw1Mpciw-33" value="API" style="whiteSpace=wrap;html=1;aspect=fixed;" parent="1" vertex="1">
          <mxGeometry x="790" y="730" width="40" height="40" as="geometry" />
        </mxCell>
        <mxCell id="I4ma-wWeDAZJkw1Mpciw-34" value="" style="endArrow=none;html=1;exitX=0.5;exitY=0;exitDx=0;exitDy=0;entryX=0.5;entryY=1;entryDx=0;entryDy=0;" parent="1" source="I4ma-wWeDAZJkw1Mpciw-32" target="I4ma-wWeDAZJkw1Mpciw-33" edge="1">
          <mxGeometry width="50" height="50" relative="1" as="geometry">
            <mxPoint x="420" y="670" as="sourcePoint" />
            <mxPoint x="470" y="620" as="targetPoint" />
          </mxGeometry>
        </mxCell>
        <mxCell id="I4ma-wWeDAZJkw1Mpciw-35" value="" style="endArrow=none;html=1;fontColor=#FF3333;exitX=0.5;exitY=1;exitDx=0;exitDy=0;entryX=0;entryY=0.25;entryDx=0;entryDy=0;" parent="1" source="I4ma-wWeDAZJkw1Mpciw-3" target="I4ma-wWeDAZJkw1Mpciw-33" edge="1">
          <mxGeometry width="50" height="50" relative="1" as="geometry">
            <mxPoint x="680" y="690" as="sourcePoint" />
            <mxPoint x="730" y="640" as="targetPoint" />
          </mxGeometry>
        </mxCell>
        <mxCell id="I4ma-wWeDAZJkw1Mpciw-36" value="" style="endArrow=none;html=1;fontColor=#FF3333;exitX=0.5;exitY=1;exitDx=0;exitDy=0;entryX=0.5;entryY=0;entryDx=0;entryDy=0;" parent="1" source="I4ma-wWeDAZJkw1Mpciw-4" target="I4ma-wWeDAZJkw1Mpciw-33" edge="1">
          <mxGeometry width="50" height="50" relative="1" as="geometry">
            <mxPoint x="520" y="640" as="sourcePoint" />
            <mxPoint x="800" y="750" as="targetPoint" />
          </mxGeometry>
        </mxCell>
        <mxCell id="I4ma-wWeDAZJkw1Mpciw-37" value="API register" style="rounded=0;whiteSpace=wrap;html=1;verticalAlign=top;fillColor=#f5f5f5;strokeColor=#666666;fontColor=#333333;" parent="1" vertex="1">
          <mxGeometry x="-230" y="480" width="330" height="420" as="geometry" />
        </mxCell>
        <mxCell id="6xk-dBPFCgzjhm5DXFw_-3" style="edgeStyle=orthogonalEdgeStyle;rounded=0;orthogonalLoop=1;jettySize=auto;html=1;exitX=0.5;exitY=1;exitDx=0;exitDy=0;entryX=0;entryY=0.5;entryDx=0;entryDy=0;" parent="1" source="I4ma-wWeDAZJkw1Mpciw-38" target="I4ma-wWeDAZJkw1Mpciw-40" edge="1">
          <mxGeometry relative="1" as="geometry" />
        </mxCell>
        <mxCell id="6xk-dBPFCgzjhm5DXFw_-4" style="edgeStyle=orthogonalEdgeStyle;rounded=0;orthogonalLoop=1;jettySize=auto;html=1;exitX=0.5;exitY=1;exitDx=0;exitDy=0;entryX=0;entryY=0.5;entryDx=0;entryDy=0;" parent="1" source="I4ma-wWeDAZJkw1Mpciw-38" target="I4ma-wWeDAZJkw1Mpciw-41" edge="1">
          <mxGeometry relative="1" as="geometry" />
        </mxCell>
        <mxCell id="I4ma-wWeDAZJkw1Mpciw-38" value="FORIS.RI" style="rounded=0;whiteSpace=wrap;html=1;" parent="1" vertex="1">
          <mxGeometry x="-200" y="500" width="100" height="40" as="geometry" />
        </mxCell>
        <mxCell id="I4ma-wWeDAZJkw1Mpciw-40" value="&lt;span style=&quot;color: rgb(0 , 0 , 0)&quot;&gt;GetFreePhones&lt;/span&gt;" style="rounded=0;whiteSpace=wrap;html=1;fontColor=#FF3333;" parent="1" vertex="1">
          <mxGeometry x="-70" y="545" width="100" height="35" as="geometry" />
        </mxCell>
        <mxCell id="I4ma-wWeDAZJkw1Mpciw-41" value="&lt;font color=&quot;#000000&quot;&gt;GetFreePhonesAndReserve&lt;/font&gt;" style="rounded=0;whiteSpace=wrap;html=1;fontColor=#FF3333;" parent="1" vertex="1">
          <mxGeometry x="-70" y="600" width="150" height="35" as="geometry" />
        </mxCell>
        <mxCell id="I4ma-wWeDAZJkw1Mpciw-45" value="1" style="ellipse;whiteSpace=wrap;html=1;aspect=fixed;fillColor=#f8cecc;strokeColor=#b85450;" parent="1" vertex="1">
          <mxGeometry x="550" y="555" width="30" height="30" as="geometry" />
        </mxCell>
        <mxCell id="I4ma-wWeDAZJkw1Mpciw-51" value="Читает&lt;br&gt;&amp;nbsp;спецификацию&lt;br&gt;&amp;nbsp;процесса" style="edgeStyle=orthogonalEdgeStyle;html=1;align=left;spacingLeft=2;endArrow=block;rounded=0;entryX=1;entryY=0;fontColor=#000000;strokeColor=#000000;" parent="1" edge="1">
          <mxGeometry x="0.164" y="-20" relative="1" as="geometry">
            <mxPoint x="169.5" y="-410" as="sourcePoint" />
            <Array as="points">
              <mxPoint x="240" y="-410" />
              <mxPoint x="240" y="-390" />
            </Array>
            <mxPoint x="175" y="-390" as="targetPoint" />
            <mxPoint x="21" y="20" as="offset" />
          </mxGeometry>
        </mxCell>
        <mxCell id="I4ma-wWeDAZJkw1Mpciw-52" value="" style="html=1;points=[];perimeter=orthogonalPerimeter;fontColor=#FF3333;" parent="1" vertex="1">
          <mxGeometry x="165" y="-390" width="10" height="40" as="geometry" />
        </mxCell>
        <mxCell id="I4ma-wWeDAZJkw1Mpciw-55" value="API Register" style="shape=umlLifeline;perimeter=lifelinePerimeter;whiteSpace=wrap;html=1;container=1;collapsible=0;recursiveResize=0;outlineConnect=0;" parent="1" vertex="1">
          <mxGeometry x="580" y="-610" width="100" height="550" as="geometry" />
        </mxCell>
        <mxCell id="6xk-dBPFCgzjhm5DXFw_-34" value="" style="html=1;points=[];perimeter=orthogonalPerimeter;" parent="I4ma-wWeDAZJkw1Mpciw-55" vertex="1">
          <mxGeometry x="45" y="390" width="10" height="60" as="geometry" />
        </mxCell>
        <mxCell id="I4ma-wWeDAZJkw1Mpciw-59" value="&lt;h1&gt;&lt;span&gt;Подход&lt;/span&gt;&lt;/h1&gt;&lt;h1&gt;&lt;span style=&quot;font-size: 12px ; font-weight: normal&quot;&gt;1. Витрина читает список &lt;/span&gt;&lt;span style=&quot;font-size: 12px ; font-weight: 400&quot;&gt;процессов&lt;/span&gt;&lt;span style=&quot;font-size: 12px ; font-weight: normal&quot;&gt;, &lt;/span&gt;&lt;span style=&quot;font-size: 12px ; font-weight: 400&quot;&gt;выбирает&lt;/span&gt;&lt;span style=&quot;font-size: 12px ; font-weight: normal&quot;&gt;&amp;nbsp;нужный процесс, читает спецификацию процесса, для каждого шага читает необходимые API из регистра&lt;/span&gt;&lt;/h1&gt;&lt;div&gt;&lt;span style=&quot;font-size: 12px ; font-weight: normal&quot;&gt;1.1. Выполняет запросы по API из витрины и управление данными осуществляет у себя.&amp;nbsp;&lt;/span&gt;&lt;/div&gt;&lt;div&gt;&lt;span style=&quot;font-size: 12px ; font-weight: normal&quot;&gt;&amp;nbsp;+ универсальность для любой витрины&lt;/span&gt;&lt;/div&gt;&lt;div&gt;&lt;span style=&quot;font-size: 12px ; font-weight: normal&quot;&gt;+ Мы управляем только конфигурацией и отдаем ее.&lt;/span&gt;&lt;/div&gt;&lt;div&gt;&lt;span style=&quot;font-size: 12px ; font-weight: normal&quot;&gt;+&amp;nbsp;&lt;/span&gt;&lt;/div&gt;&lt;div&gt;&lt;span style=&quot;font-size: 12px ; font-weight: normal&quot;&gt;&lt;br&gt;&lt;/span&gt;&lt;/div&gt;&lt;div&gt;&lt;span style=&quot;font-size: 12px ; font-weight: normal&quot;&gt;&lt;br&gt;&lt;/span&gt;&lt;/div&gt;&lt;div&gt;&lt;span style=&quot;font-size: 12px ; font-weight: normal&quot;&gt;1.2. Управление процессом на уровне Ex Management,&lt;/span&gt;&lt;/div&gt;&lt;div&gt;&lt;span style=&quot;font-size: 12px ; font-weight: normal&quot;&gt;exAPI вызов экосистемных API на внутри нас.&lt;/span&gt;&lt;/div&gt;&lt;div&gt;&lt;span style=&quot;font-size: 12px ; font-weight: normal&quot;&gt;- нагрузка на сеть&lt;/span&gt;&lt;/div&gt;&lt;div&gt;&lt;span style=&quot;font-size: 12px ; font-weight: normal&quot;&gt;&lt;br&gt;&lt;/span&gt;&lt;/div&gt;" style="text;html=1;strokeColor=none;fillColor=none;spacing=5;spacingTop=-20;whiteSpace=wrap;overflow=hidden;rounded=0;fontColor=#000000;" parent="1" vertex="1">
          <mxGeometry x="-180" y="-560" width="320" height="360" as="geometry" />
        </mxCell>
        <mxCell id="6xk-dBPFCgzjhm5DXFw_-7" style="edgeStyle=orthogonalEdgeStyle;rounded=0;orthogonalLoop=1;jettySize=auto;html=1;exitX=0.5;exitY=1;exitDx=0;exitDy=0;entryX=0;entryY=0.5;entryDx=0;entryDy=0;" parent="1" source="6xk-dBPFCgzjhm5DXFw_-9" target="6xk-dBPFCgzjhm5DXFw_-10" edge="1">
          <mxGeometry relative="1" as="geometry" />
        </mxCell>
        <mxCell id="6xk-dBPFCgzjhm5DXFw_-9" value="MPC" style="rounded=0;whiteSpace=wrap;html=1;" parent="1" vertex="1">
          <mxGeometry x="-200" y="660" width="100" height="40" as="geometry" />
        </mxCell>
        <mxCell id="6xk-dBPFCgzjhm5DXFw_-10" value="&lt;font color=&quot;#000000&quot;&gt;ProductOffering&lt;/font&gt;" style="rounded=0;whiteSpace=wrap;html=1;fontColor=#FF3333;" parent="1" vertex="1">
          <mxGeometry x="-70" y="705" width="100" height="35" as="geometry" />
        </mxCell>
        <mxCell id="6xk-dBPFCgzjhm5DXFw_-13" style="edgeStyle=orthogonalEdgeStyle;rounded=0;orthogonalLoop=1;jettySize=auto;html=1;exitX=0.5;exitY=1;exitDx=0;exitDy=0;entryX=0;entryY=0.5;entryDx=0;entryDy=0;" parent="1" source="6xk-dBPFCgzjhm5DXFw_-15" target="6xk-dBPFCgzjhm5DXFw_-16" edge="1">
          <mxGeometry relative="1" as="geometry" />
        </mxCell>
        <mxCell id="6xk-dBPFCgzjhm5DXFw_-14" style="edgeStyle=orthogonalEdgeStyle;rounded=0;orthogonalLoop=1;jettySize=auto;html=1;exitX=0.5;exitY=1;exitDx=0;exitDy=0;entryX=0;entryY=0.5;entryDx=0;entryDy=0;" parent="1" source="6xk-dBPFCgzjhm5DXFw_-15" target="6xk-dBPFCgzjhm5DXFw_-17" edge="1">
          <mxGeometry relative="1" as="geometry" />
        </mxCell>
        <mxCell id="6xk-dBPFCgzjhm5DXFw_-15" value="Манго" style="rounded=0;whiteSpace=wrap;html=1;" parent="1" vertex="1">
          <mxGeometry x="-200" y="750" width="100" height="40" as="geometry" />
        </mxCell>
        <mxCell id="6xk-dBPFCgzjhm5DXFw_-16" value="&lt;span style=&quot;color: rgb(0 , 0 , 0)&quot;&gt;ProductOrder&lt;/span&gt;" style="rounded=0;whiteSpace=wrap;html=1;fontColor=#FF3333;" parent="1" vertex="1">
          <mxGeometry x="-70" y="795" width="100" height="35" as="geometry" />
        </mxCell>
        <mxCell id="6xk-dBPFCgzjhm5DXFw_-17" value="&lt;font color=&quot;#000000&quot;&gt;Product&lt;/font&gt;" style="rounded=0;whiteSpace=wrap;html=1;fontColor=#FF3333;" parent="1" vertex="1">
          <mxGeometry x="-70" y="850" width="150" height="35" as="geometry" />
        </mxCell>
        <mxCell id="6xk-dBPFCgzjhm5DXFw_-18" value="Process" style="swimlane;startSize=20;horizontal=0;" parent="1" vertex="1">
          <mxGeometry x="240" y="410" width="800" height="120" as="geometry" />
        </mxCell>
        <mxCell id="6xk-dBPFCgzjhm5DXFw_-19" value="API" style="swimlane;startSize=20;horizontal=0;" parent="1" vertex="1">
          <mxGeometry x="240" y="530" width="800" height="120" as="geometry" />
        </mxCell>
        <mxCell id="6xk-dBPFCgzjhm5DXFw_-21" value="Что прийдет на витрину (формат), что она будет делать" style="text;html=1;strokeColor=none;fillColor=none;align=center;verticalAlign=middle;whiteSpace=wrap;rounded=0;" parent="1" vertex="1">
          <mxGeometry x="-450" y="-410" width="170" height="50" as="geometry" />
        </mxCell>
        <mxCell id="6xk-dBPFCgzjhm5DXFw_-22" value="" style="endArrow=classic;html=1;" parent="1" edge="1">
          <mxGeometry width="50" height="50" relative="1" as="geometry">
            <mxPoint x="-190" y="-380" as="sourcePoint" />
            <mxPoint x="-280" y="-380" as="targetPoint" />
          </mxGeometry>
        </mxCell>
        <mxCell id="6xk-dBPFCgzjhm5DXFw_-23" value="Нужно опредилить триггеры которые будет выдавать витрина" style="text;html=1;strokeColor=none;fillColor=none;align=center;verticalAlign=middle;whiteSpace=wrap;rounded=0;" parent="1" vertex="1">
          <mxGeometry x="-450" y="-310" width="170" height="50" as="geometry" />
        </mxCell>
        <mxCell id="6xk-dBPFCgzjhm5DXFw_-24" value="" style="endArrow=classic;html=1;" parent="1" edge="1">
          <mxGeometry width="50" height="50" relative="1" as="geometry">
            <mxPoint x="-190" y="-280" as="sourcePoint" />
            <mxPoint x="-280" y="-280" as="targetPoint" />
          </mxGeometry>
        </mxCell>
        <mxCell id="6xk-dBPFCgzjhm5DXFw_-27" value="ExMan" style="shape=umlLifeline;perimeter=lifelinePerimeter;whiteSpace=wrap;html=1;container=1;collapsible=0;recursiveResize=0;outlineConnect=0;" parent="1" vertex="1">
          <mxGeometry x="790" y="-610" width="100" height="620" as="geometry" />
        </mxCell>
        <mxCell id="6xk-dBPFCgzjhm5DXFw_-28" value="" style="html=1;points=[];perimeter=orthogonalPerimeter;" parent="6xk-dBPFCgzjhm5DXFw_-27" vertex="1">
          <mxGeometry x="45" y="300" width="10" height="220" as="geometry" />
        </mxCell>
        <mxCell id="6xk-dBPFCgzjhm5DXFw_-29" value="Get Product Offering List)" style="html=1;verticalAlign=bottom;endArrow=block;entryX=0.16;entryY=0.066;entryDx=0;entryDy=0;entryPerimeter=0;" parent="1" target="6xk-dBPFCgzjhm5DXFw_-28" edge="1">
          <mxGeometry relative="1" as="geometry">
            <mxPoint x="175" y="-300" as="sourcePoint" />
            <mxPoint x="420.5" y="-300" as="targetPoint" />
          </mxGeometry>
        </mxCell>
        <mxCell id="6xk-dBPFCgzjhm5DXFw_-30" value="Читает&lt;br&gt;&amp;nbsp;спецификацию&lt;br&gt;&amp;nbsp;процесса" style="edgeStyle=orthogonalEdgeStyle;html=1;align=left;spacingLeft=2;endArrow=block;rounded=0;entryX=1;entryY=0;fontColor=#000000;strokeColor=#000000;" parent="1" edge="1">
          <mxGeometry x="0.1613" y="-40" relative="1" as="geometry">
            <mxPoint x="850" y="-280" as="sourcePoint" />
            <Array as="points">
              <mxPoint x="920" y="-280" />
              <mxPoint x="920" y="-260" />
            </Array>
            <mxPoint x="855" y="-260" as="targetPoint" />
            <mxPoint x="40" y="40" as="offset" />
          </mxGeometry>
        </mxCell>
        <mxCell id="6xk-dBPFCgzjhm5DXFw_-31" value="MPC" style="shape=umlLifeline;perimeter=lifelinePerimeter;whiteSpace=wrap;html=1;container=1;collapsible=0;recursiveResize=0;outlineConnect=0;" parent="1" vertex="1">
          <mxGeometry x="1100" y="-610" width="100" height="550" as="geometry" />
        </mxCell>
        <mxCell id="6xk-dBPFCgzjhm5DXFw_-32" value="" style="html=1;points=[];perimeter=orthogonalPerimeter;" parent="6xk-dBPFCgzjhm5DXFw_-31" vertex="1">
          <mxGeometry x="45" y="420" width="10" height="70" as="geometry" />
        </mxCell>
        <mxCell id="6xk-dBPFCgzjhm5DXFw_-35" value="Get Process List (канала продаж)" style="html=1;verticalAlign=bottom;endArrow=block;" parent="1" target="6xk-dBPFCgzjhm5DXFw_-33" edge="1">
          <mxGeometry relative="1" as="geometry">
            <mxPoint x="830" y="-280" as="sourcePoint" />
            <mxPoint x="425" y="-520" as="targetPoint" />
          </mxGeometry>
        </mxCell>
        <mxCell id="6xk-dBPFCgzjhm5DXFw_-36" value="return (Process List)" style="html=1;verticalAlign=bottom;endArrow=open;dashed=1;endSize=8;exitX=1;exitY=0.677;entryX=-0.206;entryY=0.346;entryDx=0;entryDy=0;entryPerimeter=0;exitDx=0;exitDy=0;exitPerimeter=0;" parent="1" source="6xk-dBPFCgzjhm5DXFw_-33" target="6xk-dBPFCgzjhm5DXFw_-28" edge="1">
          <mxGeometry relative="1" as="geometry">
            <mxPoint x="190" y="-441.20000000000005" as="targetPoint" />
            <mxPoint x="425" y="-444" as="sourcePoint" />
          </mxGeometry>
        </mxCell>
        <mxCell id="6xk-dBPFCgzjhm5DXFw_-37" value="Get API parameters)" style="html=1;verticalAlign=bottom;endArrow=block;entryX=1.5;entryY=0.167;entryDx=0;entryDy=0;entryPerimeter=0;exitX=-0.394;exitY=0.462;exitDx=0;exitDy=0;exitPerimeter=0;" parent="1" source="6xk-dBPFCgzjhm5DXFw_-28" target="6xk-dBPFCgzjhm5DXFw_-34" edge="1">
          <mxGeometry relative="1" as="geometry">
            <mxPoint x="840" y="-270" as="sourcePoint" />
            <mxPoint x="435" y="-270" as="targetPoint" />
          </mxGeometry>
        </mxCell>
        <mxCell id="6xk-dBPFCgzjhm5DXFw_-38" value="return (Process List)" style="html=1;verticalAlign=bottom;endArrow=open;dashed=1;endSize=8;exitX=1;exitY=0.677;exitDx=0;exitDy=0;exitPerimeter=0;" parent="1" edge="1">
          <mxGeometry relative="1" as="geometry">
            <mxPoint x="830" y="-170" as="targetPoint" />
            <mxPoint x="630.8" y="-169.99999999999991" as="sourcePoint" />
          </mxGeometry>
        </mxCell>
        <mxCell id="6xk-dBPFCgzjhm5DXFw_-39" value="Get Process List (канала продаж)" style="html=1;verticalAlign=bottom;endArrow=block;" parent="1" edge="1">
          <mxGeometry relative="1" as="geometry">
            <mxPoint x="850" y="-170" as="sourcePoint" />
            <mxPoint x="1140" y="-170" as="targetPoint" />
          </mxGeometry>
        </mxCell>
        <mxCell id="6xk-dBPFCgzjhm5DXFw_-40" value="return (Process List)" style="html=1;verticalAlign=bottom;endArrow=open;dashed=1;endSize=8;" parent="1" edge="1">
          <mxGeometry relative="1" as="geometry">
            <mxPoint x="850" y="-137" as="targetPoint" />
            <mxPoint x="1140" y="-137" as="sourcePoint" />
          </mxGeometry>
        </mxCell>
        <mxCell id="6xk-dBPFCgzjhm5DXFw_-43" value="&lt;h1&gt;Илья нарисует схему&lt;/h1&gt;&lt;h1&gt;&lt;span style=&quot;font-size: 12px ; font-weight: normal&quot;&gt;1. Читаем процесс&lt;/span&gt;&lt;/h1&gt;&lt;div&gt;2. получаем порядок выполнения callback&lt;/div&gt;&lt;div&gt;3. ит.д.&lt;/div&gt;&lt;div&gt;4.&lt;/div&gt;&lt;div&gt;&lt;span style=&quot;font-size: 12px ; font-weight: normal&quot;&gt;&lt;br&gt;&lt;/span&gt;&lt;/div&gt;" style="text;html=1;strokeColor=none;fillColor=none;spacing=5;spacingTop=-20;whiteSpace=wrap;overflow=hidden;rounded=0;fontColor=#000000;" parent="1" vertex="1">
          <mxGeometry x="-890" y="-505" width="320" height="360" as="geometry" />
        </mxCell>
      </root>
    </mxGraphModel>
  </diagram>
</mxfile>
